<svg height="512" viewBox="0 0 512 512" width="512" xmlns="http://www.w3.org/2000/svg" id="fi_4340781"><g id="FLAT"><path d="m481.30371 142.8064-32.04271-54.9304a32 32 0 0 0 -27.64088-15.876h-75.24024a31.99969 31.99969 0 0 0 -27.64088 15.87622l-18.81128 32.24756a31.99966 31.99966 0 0 1 -27.64085 15.87622h-120.28687l-24 16-24-16-24 24-24-24-32 32 32 32h216.28687a31.99966 31.99966 0 0 1 27.64086 15.87622l18.81127 32.24756a31.99969 31.99969 0 0 0 27.64088 15.87622h75.24024a31.99969 31.99969 0 0 0 27.64088-15.87622l32.04272-54.93018a49.99955 49.99955 0 0 0 -.00001-50.3872zm-97.30371 73.1936a48 48 0 1 1 48-48 47.99987 47.99987 0 0 1 -48 48z" fill="#f2c34e"></path><path d="m454.95459 312.92432a32.00019 32.00019 0 0 0 -41.19775-12.42774l-133.55811 63.59942a16.00059 16.00059 0 0 1 -15.75439-1.13306l-64.44434-42.96294h40a32.00018 32.00018 0 0 0 32-32v-8h-98.20728a16 16 0 0 0 -10.24292 3.7085l-43.5498 36.2915h-104v96h104l136 24 208-112z" fill="#fa8481"></path><rect fill="#ef7070" height="16" rx="8" width="24" x="184" y="313.177"></rect><path d="m160 160h136v16h-136z" fill="#ddaf4a"></path><g fill="#7572f2"><path d="m90.343 66.343-10.343 10.343-10.343-10.343-11.314 11.314 10.343 10.343-10.343 10.343 11.314 11.314 10.343-10.343 10.343 10.343 11.314-11.314-10.343-10.343 10.343-10.343z"></path><path d="m162.343 66.343-10.343 10.343-10.343-10.343-11.314 11.314 10.343 10.343-10.343 10.343 11.314 11.314 10.343-10.343 10.343 10.343 11.314-11.314-10.343-10.343 10.343-10.343z"></path><path d="m245.657 77.657-11.314-11.314-10.343 10.343-10.343-10.343-11.314 11.314 10.343 10.343-10.343 10.343 11.314 11.314 10.343-10.343 10.343 10.343 11.314-11.314-10.343-10.343z"></path></g></g></svg>