<svg id="fi_10991683" enable-background="new 0 0 512 512" viewBox="0 0 512 512" xmlns="http://www.w3.org/2000/svg" xmlns:xlink="http://www.w3.org/1999/xlink"><linearGradient id="SVGID_1_" gradientUnits="userSpaceOnUse" x1="-9.221" x2="470.411" y1="383.522" y2="106.606"><stop offset="0" stop-color="#e514fc"></stop><stop offset="1" stop-color="#26bae3"></stop></linearGradient><path d="m94.081 489.215c.87 3.247-1.075 6.615-4.321 7.485l-24.603 6.592c-3.246.87-6.614-1.075-7.484-4.322l-44.091-164.55c-.87-3.247 1.075-6.615 4.321-7.485l24.603-6.592c3.246-.87 6.614 1.075 7.484 4.322zm321.157-153.764-100.728 58.157c-5.385 7.306-13.164 12.905-22.54 15.417l-50.681 13.579c-10.856 2.909-22.238 3.167-33.119.232-3.997-1.068-6.371-5.173-5.303-9.17 1.068-3.996 5.174-6.371 9.17-5.303 8.546 2.305 16.865 2.051 25.385-.232l50.681-13.579c14.031-3.759 22.47-18.304 18.695-32.396-3.758-14.025-18.374-22.453-32.396-18.696l-34.658 9.287c-17.104 4.583-33.721 2.377-49.052-6.474l-46.201-26.674c-12.142-7.01-26.511-1.617-45.3 5.435-9.203 3.454-19.341 7.26-30.801 10.345l36.77 137.226c34.493-5.458 58.266 1.322 88.451 9.93 19.121 5.453 33 11.351 51.824.482 63.668-36.76 127.911-73.194 191.264-110.414 5.074-2.928 8.497-7.7 9.924-13.029 1.48-5.526.758-11.331-2.096-16.262-5.871-10.169-19.118-13.736-29.289-7.861zm83.388-176.26c0 7.668-6.273 13.941-13.942 13.941h-9.918v42.756c0 2.299-2.712 3.513-4.429 1.993l-14.493-12.844-14.494 12.844c-1.719 1.525-4.429.301-4.429-1.993v-42.756h-134.238c-6.088 21.831-26.117 37.849-49.889 37.849-28.604 0-51.791-23.187-51.791-51.791 0-28.603 23.187-51.79 51.791-51.79 23.773 0 43.802 16.017 49.889 37.849h182.001c7.669 0 13.942 6.273 13.942 13.942zm-224.976-.001c0-11.519-9.338-20.857-20.857-20.857s-20.857 9.338-20.857 20.857 9.338 20.857 20.857 20.857 20.857-9.338 20.857-20.857zm-162.321 27.035h16.802c10.163 0 18.841 5.798 22.729 15.188 3.889 9.389 1.854 19.625-5.333 26.812l-11.881 11.881c-3.588 3.588-3.588 9.459 0 13.047l25.185 25.185c3.588 3.588 9.459 3.588 13.047 0l11.881-11.881c7.186-7.186 17.422-9.222 26.812-5.333 9.389 3.889 15.188 12.567 15.188 22.73v16.802c0 5.074 4.151 9.226 9.226 9.226h35.616c5.075 0 9.226-4.152 9.226-9.226v-16.802c0-10.163 5.798-18.841 15.188-22.73 9.389-3.889 19.625-1.853 26.812 5.333l11.881 11.881c3.588 3.588 9.459 3.588 13.047 0l25.185-25.185c3.588-3.588 3.588-9.459 0-13.047l-11.881-11.881c-7.187-7.186-9.223-17.422-5.333-26.812 2.573-6.212 7.243-10.851 13.051-13.28h-40.992c-11.57 29.556-40.335 50.489-73.991 50.489-43.868 0-79.431-35.562-79.431-79.431s35.562-79.431 79.431-79.431c33.657 0 62.422 20.933 73.991 50.49h40.992c-5.809-2.429-10.478-7.068-13.051-13.28-3.889-9.39-1.853-19.625 5.333-26.812l11.881-11.881c3.588-3.588 3.588-9.459 0-13.047l-25.185-25.185c-3.588-3.588-9.459-3.588-13.047 0l-11.881 11.881c-7.187 7.186-17.422 9.222-26.812 5.333-9.389-3.889-15.188-12.567-15.188-22.73v-16.803c0-5.075-4.151-9.226-9.226-9.226h-35.616c-5.075 0-9.226 4.151-9.226 9.226v16.802c0 10.163-5.799 18.841-15.188 22.73-9.39 3.889-19.625 1.853-26.812-5.333l-11.881-11.881c-3.588-3.588-9.459-3.588-13.047 0l-25.185 25.185c-3.588 3.588-3.588 9.459 0 13.047l11.881 11.881c7.187 7.186 9.222 17.422 5.333 26.812-3.889 9.389-12.567 15.188-22.73 15.188h-16.802c-5.075 0-9.226 4.151-9.226 9.226v35.616c.001 5.074 4.152 9.226 9.227 9.226z" fill="url(#SVGID_1_)"></path></svg>